<svg height="512pt" viewBox="-76 0 512 512" width="512pt" xmlns="http://www.w3.org/2000/svg"><path d="m269.6875 371.410156c-2.984375 1.414063-5.730469 3.1875-8.796875 4.460938l-40.636719 81.257812c-7.703125 15.351563-23.113281 24.871094-40.253906 24.871094s-32.550781-9.519531-40.238281-24.84375l-40.648438-81.285156c-3.070312-1.273438-5.816406-3.046875-8.800781-4.460938-50.410156 11.417969-90.3125 33.289063-90.3125 65.589844 0 49.234375 90.558594 75 180 75s180-25.765625 180-75c0-32.300781-39.902344-54.175781-90.3125-65.589844zm0 0"/><path d="m120.730469 352.023438 45.851562 91.6875c5.527344 11.023437 21.308594 11.023437 26.835938 0l45.851562-91.6875c72.476563-25.179688 120.730469-93.695313 120.730469-171.023438 0-99.257812-80.742188-181-180-181s-180 81.742188-180 181c0 77.328125 48.253906 145.84375 120.730469 171.023438zm-.730469-246.023438c0-8.289062 6.710938-15 15-15h75c33.089844 0 60 26.910156 60 60s-26.910156 60-60 60h-60v45c0 8.289062-6.710938 15-15 15s-15-6.710938-15-15c0-52.105469 0-97.730469 0-150zm0 0"/><path d="m240 151c0-16.539062-13.460938-30-30-30h-60v60h60c16.539062 0 30-13.460938 30-30zm0 0"/></svg>