<?xml version="1.0" encoding="UTF-8"?>
<svg width="22px" height="10px" viewBox="0 0 22 10" version="1.1" xmlns="http://www.w3.org/2000/svg" xmlns:xlink="http://www.w3.org/1999/xlink">
    <!-- Generator: Sketch 50.2 (55047) - http://www.bohemiancoding.com/sketch -->
    <defs></defs>
    <g id="Page-1" stroke="none" stroke-width="1" fill="none" fill-rule="evenodd">
        <g id="Artboard" transform="translate(-672.000000, -179.000000)" fill="#262626" fill-rule="nonzero">
            <g id="choose-type" transform="translate(668.000000, 169.000000)">
                <g id="by-car">
                    <g id="car" transform="translate(15.000000, 15.000000) scale(-1, 1) translate(-15.000000, -15.000000) translate(4.000000, 10.000000)">
                        <path d="M21.9394599,6.77956038 L21.7096822,4.38289371 C21.5988488,3.22656603 20.9852933,2.19995586 20.0467377,1.57379767 C20.2054599,1.45266772 20.2951266,1.24893891 20.2627377,1.03554908 C20.2159599,0.727131 19.9324044,0.515492582 19.6289599,0.563345689 L18.3478488,0.764362638 C15.7073488,-0.210778605 11.2831822,-0.744224933 5.23945994,2.29182027 C4.65957105,2.5830632 4.03762661,2.77374117 3.39084883,2.85843043 C2.0375155,3.03560558 1.06812661,3.58345868 0.509737718,4.48679202 C-0.402928948,5.96323269 0.183182163,7.80871292 0.208571052,7.88656603 C0.283959941,8.11763947 0.496459941,8.27362817 0.735848829,8.27362817 L2.58073772,8.27362817 C2.82662661,9.21385416 3.67068216,9.90876942 4.67157105,9.90876942 C5.67245994,9.90876942 6.5165155,9.21385416 6.76240438,8.27362817 L16.2961266,8.27362817 C16.5420155,9.21385416 17.3860711,9.90876942 18.3869599,9.90876942 C19.3878488,9.90876942 20.2319044,9.21385416 20.4777933,8.27362817 L20.6066266,8.27362817 C20.9836266,8.27362817 21.3451266,8.11074682 21.5984599,7.82684851 C21.8517933,7.54278072 21.9760711,7.1611423 21.9394599,6.77956038 Z M19.4393488,7.70859993 C19.4393488,8.29871292 18.9672377,8.77876942 18.3869599,8.77876942 C17.8066822,8.77876942 17.3345711,8.29871292 17.3345711,7.70859993 C17.3345711,7.11848693 17.8066822,6.63837394 18.3869599,6.63837394 C18.9672377,6.63837394 19.4393488,7.11848693 19.4393488,7.70859993 Z M5.7240155,7.70859993 C5.7240155,8.29871292 5.25190438,8.77876942 4.67162661,8.77876942 C4.09134883,8.77876942 3.61923772,8.29871292 3.61923772,7.70859993 C3.61923772,7.11848693 4.09134883,6.63837394 4.67162661,6.63837394 C5.25190438,6.63837394 5.7240155,7.11848693 5.7240155,7.70859993 Z M20.4778488,7.14362817 C20.2319599,6.20334569 19.3879044,5.50843043 18.3870155,5.50843043 C17.3861266,5.50843043 16.5420711,6.20340219 16.2961822,7.14362817 L6.76245994,7.14362817 C6.51657105,6.20334569 5.6725155,5.50843043 4.67162661,5.50843043 C3.67073772,5.50843043 2.82668216,6.20340219 2.58079327,7.14362817 L1.17423772,7.14362817 C1.08690438,6.64882591 1.02268216,5.7752101 1.45362661,5.08295021 C1.82762661,4.48210275 2.52712661,4.11069032 3.53273772,3.9790519 C4.30157105,3.87837394 5.04134883,3.65153778 5.73157105,3.30481462 C11.4496822,0.432441734 15.5675155,0.932159248 17.9937933,1.83571857 C18.0471822,1.86741349 18.1059044,1.88995586 18.1677933,1.90215925 C18.5707933,2.06057733 18.9240155,2.22876942 19.2264044,2.39170727 C20.0029599,2.81018185 20.5179044,3.59554908 20.6039044,4.49249823 L20.8336822,6.8892214 C20.8421822,6.97814795 20.8009599,7.0391084 20.7756266,7.06752648 C20.7502377,7.09594456 20.6946266,7.14362817 20.6066822,7.14362817 L20.4778488,7.14362817 Z" id="Shape"></path>
                    </g>
                </g>
            </g>
        </g>
    </g>
</svg>