<?xml version="1.0" encoding="UTF-8"?>
<svg width="18px" height="12px" viewBox="0 0 18 12" version="1.1" xmlns="http://www.w3.org/2000/svg" xmlns:xlink="http://www.w3.org/1999/xlink">
    <!-- Generator: Sketch 50.2 (55047) - http://www.bohemiancoding.com/sketch -->
    <defs></defs>
    <g id="Page-1" stroke="none" stroke-width="1" fill="none" fill-rule="evenodd">
        <g id="Artboard" transform="translate(-706.000000, -178.000000)" fill="#262626" fill-rule="nonzero">
            <g id="choose-type" transform="translate(668.000000, 169.000000)">
                <g id="public-transport" transform="translate(32.000000, 0.000000)">
                    <path d="M23.9725391,16.3210413 C23.9709865,16.0338843 23.9275633,15.7494545 23.8435795,15.4755868 L22.4467116,10.9244132 C22.1000054,9.79477686 21.0887547,9.03580165 19.9303989,9.03580165 L7.6939407,9.03580165 C6.7598814,9.03580165 6,9.81247934 6,10.767124 L6,17.4821653 C6,18.4368099 6.7598814,19.2134876 7.6939407,19.2134876 L8.04574124,19.2134876 C8.24839892,20.2236198 9.12491644,20.9857686 10.1723612,20.9857686 C11.2198059,20.9857686 12.0962749,20.2236694 12.2989326,19.2134876 L17.3571267,19.2134876 C17.5597844,20.2236198 18.4362534,20.9857686 19.4836981,20.9857686 C20.5443396,20.9857686 21.4291536,20.2040826 21.617062,19.1749091 C22.1968949,19.0782645 22.7309272,18.7996364 23.1535148,18.365405 C23.6857035,17.8184628 23.9766146,17.0924628 23.9725391,16.3210413 Z M18.2833261,18.7672066 C18.2833261,18.0907438 18.8218221,17.5403802 19.4836496,17.5403802 C20.1455741,17.5403802 20.6840216,18.0907438 20.6840216,18.7672066 C20.6840216,19.4436694 20.1455256,19.9940331 19.4836496,19.9940331 C18.8217736,19.9939835 18.2833261,19.4436694 18.2833261,18.7672066 Z M11.3726846,18.7672066 C11.3726846,19.4436694 10.8341887,19.9940331 10.1723612,19.9940331 C9.51043666,19.9940331 8.97198922,19.4436694 8.97198922,18.7672066 C8.97198922,18.0907438 9.51048518,17.5403802 10.1723612,17.5403802 C10.8342372,17.5403802 11.3726846,18.0907438 11.3726846,18.7672066 Z M21.5747062,18.1731074 C21.3198437,17.2374545 20.4792291,16.5486446 19.4836496,16.5486446 C18.4708464,16.5486446 17.6180054,17.2613554 17.3795418,18.2217521 L12.276469,18.2217521 C12.0380054,17.2613554 11.1851644,16.5486446 10.1723612,16.5486446 C9.15955795,16.5486446 8.30666846,17.2613554 8.06820485,18.2217521 L7.6939407,18.2217521 C7.29493261,18.2217521 6.9703504,17.8900165 6.9703504,17.4821653 L6.9703504,15.9215207 L22.9564852,15.9215207 C22.9857898,16.0542645 23.0014609,16.1898347 23.0021402,16.3264463 C23.0048086,16.8318843 22.8142318,17.3076198 22.4654394,17.6660331 C22.2169811,17.9213554 21.9096712,18.0944132 21.5747062,18.1731074 Z M7.6939407,10.0275372 L19.9303504,10.0275372 C20.3990782,10.0275372 20.8289919,10.224843 21.1356712,10.5536033 L18.3634771,10.5536033 C18.0955633,10.5536033 17.8783019,10.7756033 17.8783019,11.0494711 L17.8783019,13.8761653 C17.8783019,14.1500331 18.0955633,14.3720331 18.3634771,14.3720331 L22.4878544,14.3720331 L22.6590243,14.9297851 L6.9703504,14.9297851 L6.9703504,10.767124 C6.9703504,10.3593223 7.29493261,10.0275372 7.6939407,10.0275372 Z M21.6202642,11.5453388 L22.1834555,13.3802975 L18.8486523,13.3802975 L18.8486523,11.5453388 L21.6202642,11.5453388 Z" id="Shape"></path>
                </g>
            </g>
        </g>
    </g>
</svg>