<?xml version="1.0" encoding="UTF-8"?>
<svg width="115px" height="43px" viewBox="0 0 115 43" version="1.1" xmlns="http://www.w3.org/2000/svg" xmlns:xlink="http://www.w3.org/1999/xlink">
    <!-- Generator: Sketch 48.2 (47327) - http://www.bohemiancoding.com/sketch -->
    <title>searfilogo</title>
    <desc>Created with Sketch.</desc>
    <defs></defs>
    <g id="Page-1" stroke="none" stroke-width="1" fill="none" fill-rule="evenodd">
        <g id="searfilogo" fill="#45A7B9" fill-rule="nonzero">
            <path d="M15.4357004,0.0556631831 C9.97549399,0.0556631831 5.53373412,4.35857626 5.53373412,9.648193 C5.53373412,10.5293427 5.79283534,11.7795132 6.3145345,13.437346 C6.78032957,13.1365339 7.33751378,12.969588 7.90920281,12.969588 C8.0974203,12.969588 8.28425633,12.9876544 8.46625751,13.0217796 C7.94235672,11.9953468 7.66987306,10.8705531 7.66987306,9.70962678 C7.66987306,5.5537114 11.1600123,2.17263907 15.4499894,2.17263907 C19.7399666,2.17263907 23.2301057,5.5537114 23.2301057,9.70962678 C23.2301057,13.8655421 19.7399666,17.2466145 15.4499894,17.2466145 C14.1338485,17.2466145 12.8467171,16.9200831 11.705325,16.3098439 C11.8130751,17.1255034 11.546117,17.9793028 10.9044509,18.6002478 L9.01545536,20.4302123 C11.6135041,26.4129555 14.7687371,32.4948125 14.806251,32.5674958 C14.9264771,32.7935753 15.1669294,32.9443368 15.4357004,32.9443368 C15.7044714,32.9443368 15.9520465,32.7935753 16.0722726,32.5674957 C16.4471104,31.8343475 25.3376666,14.6705792 25.3376666,9.648193 C25.3376666,4.35857626 20.89595,0.0556631831 15.4357004,0.0556631831 Z" id="Shape"></path>
            <path d="M9.90763214,15.694921 L11.2831738,14.3619887 C12.4012979,15.3028157 13.8565298,15.876504 15.4498599,15.876504 C18.9650804,15.876504 21.8154096,13.1152057 21.8154096,9.70987769 C21.8154096,6.31136634 18.9650804,3.54325138 15.4498599,3.54325138 C11.9417192,3.54325138 9.08431017,6.31136634 9.08431017,9.70987769 C9.08431017,11.0745098 9.54876699,12.3314549 10.3244734,13.3529531 L8.90783471,14.7256982 L8.90748934,14.7253637 C8.37702686,14.2114781 7.44340774,14.2114781 6.9058655,14.7253637 L1.28299774,20.1725585 C0.455445228,20.9742083 0.455445228,22.2760683 1.28299774,23.077718 C1.68611125,23.4682761 2.21657372,23.6806803 2.78243489,23.6806803 C3.3482529,23.6806803 3.88579514,23.4682761 4.28187202,23.077718 L9.90473977,17.6305649 C10.4553622,17.0971494 10.4560961,16.2363661 9.90763214,15.694921 Z" id="Shape"></path>
            <path d="M32.44,32.92 C30.76,32.92 29.28,32.6266667 28,32.04 C26.72,31.4533333 25.7333333,30.6333333 25.04,29.58 C24.3466667,28.5266667 24,27.3066667 24,25.92 C24,24.7466667 24.2466667,23.68 24.74,22.72 C25.2333333,21.76 25.9,21 26.74,20.44 C27.58,19.88 28.5066667,19.6 29.52,19.6 C30.4533333,19.6 31.24,19.8333333 31.88,20.3 C32.52,20.7666667 32.92,21.4133333 33.08,22.24 C31.6933333,22.24 30.5866667,22.6066667 29.76,23.34 C28.9333333,24.0733333 28.52,25.0666667 28.52,26.32 C28.52,27.4666667 28.8666667,28.3866667 29.56,29.08 C30.2533333,29.7733333 31.1733333,30.12 32.32,30.12 C33.7333333,30.12 34.9,29.6466667 35.82,28.7 C36.74,27.7533333 37.2,26.56 37.2,25.12 C37.2,23.8666667 36.8533333,22.68 36.16,21.56 C35.4666667,20.44 34.4266667,19.08 33.04,17.48 C31.6,15.8266667 30.5133333,14.4066667 29.78,13.22 C29.0466667,12.0333333 28.68,10.7333333 28.68,9.32 C28.68,7.93333333 29.0666667,6.68666667 29.84,5.58 C30.6133333,4.47333333 31.68,3.6 33.04,2.96 C34.4,2.32 35.9333333,2 37.64,2 C39.8,2 41.5266667,2.50666667 42.82,3.52 C44.1133333,4.53333333 44.76,5.89333333 44.76,7.6 C44.76,8.72 44.48,9.6266667 43.92,10.32 C43.36,11.0133333 42.6266667,11.36 41.72,11.36 C40.7066667,11.36 39.8933333,10.9466667 39.28,10.12 C39.7866667,9.7466667 40.1866667,9.2533333 40.48,8.64 C40.7733333,8.02666667 40.92,7.38666667 40.92,6.72 C40.92,5.86666667 40.6666667,5.18666667 40.16,4.68 C39.6533333,4.17333333 38.96,3.92 38.08,3.92 C37.0133333,3.92 36.14,4.3 35.46,5.06 C34.78,5.82 34.44,6.78666667 34.44,7.96 C34.44,9.0266667 34.7466667,10.02 35.36,10.94 C35.9733333,11.86 36.9333333,13.04 38.24,14.48 C39.3066667,15.6266667 40.1666667,16.6133333 40.82,17.44 C41.4733333,18.2666667 42.0333333,19.22 42.5,20.3 C42.9666667,21.38 43.2,22.5466667 43.2,23.8 C43.2,25.5066667 42.7266667,27.0533333 41.78,28.44 C40.8333333,29.8266667 39.54,30.92 37.9,31.72 C36.26,32.52 34.44,32.92 32.44,32.92 Z M51.16,32.44 C49.1866667,32.44 47.6533333,31.9266667 46.56,30.9 C45.4666667,29.8733333 44.92,28.2666667 44.92,26.08 C44.92,24.24 45.28,22.2133333 46,20 C46.72,17.7866667 47.8933333,15.8733333 49.52,14.26 C51.1466667,12.6466667 53.2133333,11.84 55.72,11.84 C58.6533333,11.84 60.12,13.12 60.12,15.68 C60.12,17.1733333 59.6933333,18.5466667 58.84,19.8 C57.9866667,21.0533333 56.8533333,22.06 55.44,22.82 C54.0266667,23.58 52.52,24.0133333 50.92,24.12 C50.8666667,24.92 50.84,25.4533333 50.84,25.72 C50.84,27.0266667 51.0666667,27.9133333 51.52,28.38 C51.9733333,28.8466667 52.7066667,29.08 53.72,29.08 C55.16,29.08 56.3933333,28.7466667 57.42,28.08 C58.4466667,27.4133333 59.5733333,26.4 60.8,25.04 L62.16,25.04 C59.2,29.9733333 55.5333333,32.44 51.16,32.44 Z M51.24,22.2 C52.2266667,22.1466667 53.1666667,21.8 54.06,21.16 C54.9533333,20.52 55.6733333,19.7066667 56.22,18.72 C56.7666667,17.7333333 57.04,16.6933333 57.04,15.6 C57.04,14.5066667 56.7066667,13.96 56.04,13.96 C55.08,13.96 54.14,14.8 53.22,16.48 C52.3,18.16 51.64,20.0666667 51.24,22.2 Z M65.6,32.44 C64.08,32.44 62.8133333,31.92 61.8,30.88 C60.7866667,29.84 60.28,28.2133333 60.28,26 C60.28,24.0266667 60.6733333,21.9533333 61.46,19.78 C62.2466667,17.6066667 63.42,15.7666667 64.98,14.26 C66.54,12.7533333 68.4,12 70.56,12 C71.6533333,12 72.4666667,12.1866667 73,12.56 C73.5333333,12.9333333 73.8,13.4266667 73.8,14.04 L73.8,14.32 L74.24,12.2 L80,12.2 L77.12,25.8 C77.0133333,26.2 76.96,26.6266667 76.96,27.08 C76.96,28.2266667 77.5066667,28.8 78.6,28.8 C79.3466667,28.8 79.9933333,28.4533333 80.54,27.76 C81.0866667,27.0666667 81.52,26.16 81.84,25.04 L83.52,25.04 C82.5333333,27.92 81.3133333,29.8733333 79.86,30.9 C78.4066667,31.9266667 76.9466667,32.44 75.48,32.44 C74.36,32.44 73.46,32.1266667 72.78,31.5 C72.1,30.8733333 71.6933333,29.96 71.56,28.76 C70.7866667,29.8533333 69.9266667,30.74 68.98,31.42 C68.0333333,32.1 66.9066667,32.44 65.6,32.44 Z M68.2,28.56 C68.8666667,28.56 69.5266667,28.2466667 70.18,27.62 C70.8333333,26.9933333 71.28,26.1333333 71.52,25.04 L73.44,16 C73.44,15.6533333 73.3066667,15.3133333 73.04,14.98 C72.7733333,14.6466667 72.36,14.48 71.8,14.48 C70.7333333,14.48 69.7733333,15.1 68.92,16.34 C68.0666667,17.58 67.4,19.0733333 66.92,20.82 C66.44,22.5666667 66.2,24.1066667 66.2,25.44 C66.2,26.7733333 66.3933333,27.6266667 66.78,28 C67.1666667,28.3733333 67.64,28.56 68.2,28.56 Z M80.32,32.2 L84.56,12.2 L90.32,12.2 L89.8,14.68 C90.7066667,13.88 91.5266667,13.2666667 92.26,12.84 C92.9933333,12.4133333 93.7866667,12.2 94.64,12.2 C95.4933333,12.2 96.1666667,12.4933333 96.66,13.08 C97.1533333,13.6666667 97.4,14.3733333 97.4,15.2 C97.4,15.9733333 97.1466667,16.6533333 96.64,17.24 C96.1333333,17.8266667 95.4266667,18.12 94.52,18.12 C93.9333333,18.12 93.54,17.98 93.34,17.7 C93.14,17.42 92.9866667,17.0133333 92.88,16.48 C92.8,16.1333333 92.72,15.88 92.64,15.72 C92.56,15.56 92.4133333,15.48 92.2,15.48 C91.64,15.48 91.1666667,15.5933333 90.78,15.82 C90.3933333,16.0466667 89.8933333,16.44 89.28,17 L86.08,32.2 L80.32,32.2 Z M89.98,40.98 C89.0333333,40.1666667 88.56,39.1333333 88.56,37.88 C88.56,36.7333333 88.8533333,35.7866667 89.44,35.04 C90.0266667,34.2933333 90.7866667,33.7 91.72,33.26 C92.6533333,32.82 93.8933333,32.36 95.44,31.88 L99.7302525,11.0958459 C100.263586,8.53584591 102.308395,6.56273408 102.906813,6.14302103 C105.04,4.64686774 107.353298,4.45845737 109.011293,4.45845737 C110.756749,4.45845737 112.819115,5.15813174 114.076848,6.44169194 C114.915336,7.29739873 115.13618,8.48833846 114.73938,10.0145111 C113.589946,9.0642045 112.933569,8.51628837 112.770249,8.37076277 C112.473616,8.10850265 111.098989,7.16660389 110.652563,6.92828482 C110.206137,6.68996576 109.72699,6.56 109.300324,6.56 C108.740324,6.56 108.55713,6.60689947 107.791419,6.92828482 C106.972674,7.37402383 106.449144,7.78858258 106.04,9.04 L105.36,12.2 L108.28,12.2 L108,13.8 L105.04,13.8 L100.44,35.4 C99.9066667,37.9866667 98.9866667,39.7666667 97.68,40.74 C96.3733333,41.7133333 94.9066667,42.2 93.28,42.2 C92.0266667,42.2 90.9266667,41.7933333 89.98,40.98 Z M92.36,38.64 C93.4266667,38.64 94.1866667,37.6 94.64,35.52 L95.16,33.2 C93.7466667,33.68 92.66,34.2333333 91.9,34.86 C91.14,35.4866667 90.76,36.3066667 90.76,37.32 C90.76,37.64 90.92,37.94 91.24,38.22 C91.56,38.5 91.9333333,38.64 92.36,38.64 Z M110.275346,11.0846541 C109.758449,10.5677568 109.5,9.9384906 109.5,9.1968553 C109.5,8.45522013 109.758449,7.82033543 110.275346,7.29220126 C110.792243,6.76406709 111.421509,6.5 112.163145,6.5 C112.90478,6.5 113.539665,6.76406709 114.067799,7.29220126 C114.595933,7.82033543 114.86,8.45522013 114.86,9.1968553 C114.86,9.9384906 114.595933,10.5677568 114.067799,11.0846541 C113.539665,11.6015514 112.90478,11.86 112.163145,11.86 C111.421509,11.86 110.792243,11.6015514 110.275346,11.0846541 Z M107.18,32.04 C106.358102,31.1182453 106,30.04 106,28.44 C106,27.7733333 106.106667,26.9066667 106.32,25.84 L109.04,13 L114.8,13 L111.92,26.6 C111.813333,27 111.76,27.4266667 111.76,27.88 C111.76,28.4133333 111.886667,28.7933333 112.14,29.02 C112.498419,29.270308 113.262677,29.2897532 114.432774,29.0783357 C113.915751,30.5706741 113.441684,31.5578955 113.010574,32.04 C112.363908,32.7631567 111.568845,33.24 110.28,33.24 C109,33.24 108.001898,32.9617547 107.18,32.04 Z" id="Shape"></path>
        </g>
    </g>
</svg>