<?xml version="1.0" encoding="UTF-8"?>
<svg width="9px" height="12px" viewBox="0 0 9 12" version="1.1" xmlns="http://www.w3.org/2000/svg" xmlns:xlink="http://www.w3.org/1999/xlink">
    <!-- Generator: Sketch 50.2 (55047) - http://www.bohemiancoding.com/sketch -->
    <defs></defs>
    <g id="Page-1" stroke="none" stroke-width="1" fill="none" fill-rule="evenodd">
        <g id="Artboard" transform="translate(-678.000000, -142.000000)" fill="#45A7B9" fill-rule="nonzero">
            <g id="time-&amp;-distance" transform="translate(668.000000, 114.000000)">
                <g id="Group-5" transform="translate(10.000000, 28.000000)">
                    <g id="placeholder-(1)">
                        <ellipse id="XMLID_506_" cx="4.48786638" cy="4.45838123" rx="1.09090909" ry="1.13142857"></ellipse>
                        <path d="M7.60723815,7.18376572 L4.4784803,11.7613159 L4.10320969,11.2123287 L1.35555017,7.1921713 C0.193327551,5.62296378 0.36066351,3.07987651 1.72113632,1.70194083 C2.45653801,0.956988463 3.4372248,0.545454545 4.47846154,0.545454545 C5.51957619,0.545454545 6.5004191,0.957029216 7.23577485,1.70192876 C8.59711247,3.08075421 8.76286218,5.62394589 7.60723815,7.18376572 Z M6.86669822,6.65674563 C7.76690381,5.44125325 7.63379846,3.39898758 6.58885244,2.34062876 C6.02396843,1.76840859 5.27599076,1.45454545 4.47846154,1.45454545 C3.68082225,1.45454545 2.9330037,1.7683589 2.36807063,2.34062876 C1.32380785,3.39829558 1.18943318,5.44045389 2.09607236,6.66512589 L4.47846962,10.1503597 L6.86669822,6.65674563 Z M4.47845425,9.51145955 L6.56559651,6.45821358 C7.37968634,5.35806897 7.2633026,3.5378644 6.33508296,2.59774538 C5.83782468,2.09418442 5.18008241,1.81818182 4.47846154,1.81818182 C3.77683231,1.81818182 3.11912087,2.09418826 2.62204242,2.59772227 C1.69447074,3.53718503 1.57683746,5.35727866 2.38737321,6.45257043 L4.47845425,9.51145955 Z M4.47846883,11.1223586 L4.10321654,10.5734296 L1.64681272,6.97956487 C0.581017341,5.54004904 0.731023146,3.21906794 1.97511068,1.95903174 C2.64265358,1.28281944 3.53323256,0.909090909 4.47846154,0.909090909 C5.42365183,0.909090909 6.3142137,1.28278956 6.9819655,1.959005 C8.22488455,3.21785775 8.37485579,5.53338484 7.31144649,6.97804236 L4.47846883,11.1223586 Z" id="Shape"></path>
                    </g>
                </g>
            </g>
        </g>
    </g>
</svg>