<?xml version="1.0" encoding="UTF-8"?>
<svg width="12px" height="15px" viewBox="0 0 12 15" version="1.1" xmlns="http://www.w3.org/2000/svg" xmlns:xlink="http://www.w3.org/1999/xlink">
    <!-- Generator: Sketch 50.2 (55047) - http://www.bohemiancoding.com/sketch -->
    <defs></defs>
    <g id="Page-1" stroke="none" stroke-width="1" fill="none" fill-rule="evenodd">
        <g id="Artboard" transform="translate(-740.000000, -176.000000)" fill="#262626" fill-rule="nonzero">
            <g id="choose-type" transform="translate(668.000000, 169.000000)">
                <g id="by-walk" transform="translate(64.000000, 0.000000)">
                    <g id="walk" transform="translate(8.000000, 7.000000)">
                        <path d="M11.6281827,6.45789144 C11.615665,6.45360125 11.6029645,6.44981211 11.5901726,6.44652401 L9.61495431,5.93827766 L7.98121827,4.68068894 C9.06003046,3.70719207 9.16702538,2.01879958 8.2202132,0.909582463 C7.27340102,-0.199634656 5.63128934,-0.309645094 4.55247716,0.663851775 C3.52577665,1.59031315 3.37187817,3.17586639 4.2002132,4.29269311 L4.18669036,4.29269311 C4.04884264,4.29272443 3.9166599,4.34906054 3.81919797,4.44926931 L0.180609137,8.1904071 C-0.0223248731,8.39912317 -0.0223248731,8.73742171 0.180609137,8.94610647 L1.22019289,10.0149896 C1.40747208,10.2076409 1.70570558,10.2246764 1.91256853,10.0545407 L3.66688325,8.61153445 L3.66688325,9.57353862 L3.2115533,11.4473173 L1.81900508,12.3991754 C1.58016244,12.5629541 1.51568528,12.8947704 1.67494416,13.1403445 C1.67497462,13.1403758 1.67500508,13.1404071 1.67500508,13.1404697 L2.71458883,14.74381 C2.86897462,14.9808038 3.17713706,15.051357 3.41476142,14.9041441 L6.01373604,13.3008038 C6.12006091,13.235167 6.20010152,13.1326409 6.23932995,13.0116701 L6.42283249,12.4451461 L7.91256853,14.7432777 C8.05793909,14.9675261 8.34292386,15.0454071 8.57738071,14.925 L10.6565787,13.8561169 C10.9134518,13.7243424 11.017797,13.4033925 10.8896345,13.1392797 C10.8895736,13.1391545 10.8895127,13.1390292 10.8894518,13.1388727 L9.33006091,9.93219207 C9.32028426,9.91230689 9.30935025,9.8930167 9.2973198,9.87447808 L8.53373604,8.69868476 L10.858264,9.09685804 C10.8866193,9.10143006 10.9153401,9.10337161 10.9440305,9.1027453 C11.1678579,9.10280793 11.3665888,8.95553236 11.4373096,8.73717119 L11.9571168,7.1338309 C12.0478173,6.85374739 11.9005584,6.55111691 11.6281827,6.45789144 Z M6.26588832,1.08601253 C7.12711675,1.08601253 7.82527919,1.80385177 7.82527919,2.68935282 C7.82527919,3.57485386 7.12711675,4.29269311 6.26588832,4.29269311 C5.4046599,4.29269311 4.70649746,3.57485386 4.70649746,2.68935282 C4.70649746,1.80385177 5.4046599,1.08601253 6.26588832,1.08601253 Z M5.31204061,12.4873591 L3.30304569,13.7267223 L2.82691371,12.9918476 L3.95384772,12.2195825 C4.06139086,12.1457411 4.13832487,12.0332881 4.1695736,11.9042693 L4.49963452,10.5478497 L5.65254822,11.4366388 L5.31204061,12.4873591 Z M9.72511675,13.1388413 L8.52127919,13.7577244 L6.69679188,10.9433299 C6.67985787,10.9215344 6.66106599,10.9013361 6.6406599,10.8829228 C6.62485279,10.8636013 6.60746193,10.8457203 6.58867005,10.8294676 C6.58294416,10.8246451 6.5793198,10.8177244 6.57359391,10.8129019 L4.70649746,9.36989562 L4.70649746,7.4993737 C4.70661929,7.20419624 4.47395939,6.96482255 4.18690355,6.9647286 C4.06873096,6.96469729 3.95409137,7.0060334 3.86183756,7.08197286 L1.62670051,8.92099165 L1.28311675,8.56825678 L4.40189848,5.3615762 L6.85483249,5.3615762 L7.3106802,8.64413361 C7.32170558,8.72307933 7.34975635,8.79851775 7.39282234,8.86487474 L8.41422335,10.43881 L9.72511675,13.1388413 Z M10.5895431,7.9654071 L8.20991878,7.5581524 L7.99732995,6.0285595 L9.07279188,6.85803758 C9.12816244,6.90072025 9.19123858,6.93159708 9.25836548,6.94888309 L10.7933299,7.34329854 L10.5895431,7.9654071 Z" id="Shape"></path>
                    </g>
                </g>
            </g>
        </g>
    </g>
</svg>