<svg height="512pt" viewBox="-44 0 512 512" width="512pt" xmlns="http://www.w3.org/2000/svg"><path d="m350.496094 504.5h-277.171875c-36.351563 0-65.824219-29.472656-65.824219-65.824219v-365.351562c0-36.351563 29.472656-65.824219 65.824219-65.824219h164.179687c20.648438 0 40.449219 8.203125 55.050782 22.804688l100.964843 100.96875c14.601563 14.597656 22.800781 34.402343 22.800781 55.050781v252.351562c0 36.351563-29.46875 65.824219-65.824218 65.824219zm0 0" fill="#ffeb99"/><path d="m161.847656 440.292969v-40.46875c0-21.542969 10.3125-41.921875 28-54.214844 27.214844-18.917969 35.179688-51.390625 35.179688-51.390625l-13.117188-286.71875h-138.585937c-36.351563 0-65.824219 29.472656-65.824219 65.824219v365.351562c0 36.351563 29.472656 65.824219 65.824219 65.824219h112.839843c-24.804687-24.859375-24.316406-64.207031-24.316406-64.207031zm0 0" fill="#ffde55"/><path d="m393.519531 131.273438-100.964843-100.96875c-6.65625-6.65625-14.398438-11.984376-22.800782-15.8125v100.308593c0 21.6875 17.578125 39.269531 39.265625 39.269531h100.308594c-3.824219-8.402343-9.152344-16.144531-15.808594-22.796874zm0 0" fill="#fff5ca"/><path d="m108.476562 7.5v258.515625c0 34.066406 27.617188 61.679687 61.679688 61.679687 34.066406 0 61.683594-27.613281 61.683594-61.679687v-258.515625zm61.679688 293.867188c-10.964844 0-19.851562-8.890626-19.851562-19.855469 0-10.964844 8.886718-19.855469 19.851562-19.855469s19.855469 8.890625 19.855469 19.855469c0 10.964843-8.886719 19.855469-19.855469 19.855469zm0 0" fill="#d8d7da"/><g fill="#c6c5ca"><path d="m170.15625 301.367188c-10.964844 0-19.851562-8.890626-19.851562-19.855469 0-7.992188 4.734374-14.890625 11.542968-18.035157v-255.976562h-53.371094v258.515625c0 34.066406 27.617188 61.679687 61.679688 61.679687 9.5625 0 18.609375-2.175781 26.6875-6.054687-19.308594-7.710937-26.6875-20.273437-26.6875-20.273437zm0 0"/><path d="m108.476562 7.5h123.363282v46.632812h-123.363282zm0 0"/><path d="m108.476562 100.761719h123.363282v46.632812h-123.363282zm0 0"/><path d="m108.476562 194.027344h123.363282v46.628906h-123.363282zm0 0"/></g><path d="m108.476562 7.5h53.371094v46.632812h-53.371094zm0 0" fill="#acabb1"/><path d="m108.476562 100.761719h53.371094v46.632812h-53.371094zm0 0" fill="#acabb1"/><path d="m108.476562 194.023438h53.371094v46.632812h-53.371094zm0 0" fill="#acabb1"/><path d="m398.824219 125.96875-100.964844-100.96875c-16.121094-16.121094-37.558594-25-60.355469-25h-164.179687c-40.429688 0-73.324219 32.894531-73.324219 73.324219v365.351562c0 40.429688 32.894531 73.324219 73.324219 73.324219h277.171875c40.433594 0 73.324218-32.894531 73.324218-73.324219v-252.355469c0-22.796874-8.875-44.230468-24.996093-60.351562zm-282.847657 122.1875h108.363282v17.859375c0 29.875-24.304688 54.179687-54.179688 54.179687-29.878906 0-54.183594-24.304687-54.183594-54.179687zm108.363282-15h-108.363282v-31.632812h108.363282zm0-46.632812h-108.363282v-31.628907h108.363282zm0-46.628907h-108.363282v-31.632812h12.722657c4.144531 0 7.5-3.355469 7.5-7.5 0-4.140625-3.355469-7.5-7.5-7.5h-12.722657v-31.628907h108.363282v31.628907h-62.492188c-4.144531 0-7.5 3.359375-7.5 7.5 0 4.144531 3.355469 7.5 7.5 7.5h62.492188zm0-124.894531v31.632812h-108.363282v-31.632812zm184.480468 423.675781c0 32.160157-26.164062 58.324219-58.324218 58.324219h-277.171875c-32.160157 0-58.324219-26.164062-58.324219-58.324219v-365.351562c0-32.160157 26.164062-58.324219 58.324219-58.324219h27.652343v251.015625c0 38.144531 31.035157 69.179687 69.183594 69.179687 38.144532 0 69.179688-31.035156 69.179688-69.179687v-250.96875c7.941406.199219 15.664062 1.710937 22.914062 4.429687v95.324219c0 25.789063 20.980469 46.769531 46.769532 46.769531h64.753906c4.144531 0 7.5-3.355468 7.5-7.5 0-4.140624-3.355469-7.5-7.5-7.5h-64.757813c-17.515625 0-31.765625-14.25-31.765625-31.769531v-87.5c3.539063 2.4375 6.890625 5.203125 9.996094 8.304688l100.964844 100.96875c13.289062 13.289062 20.605468 30.957031 20.605468 49.75zm0 0"/><path d="m170.160156 308.867188c15.082032 0 27.351563-12.273438 27.351563-27.355469s-12.269531-27.355469-27.351563-27.355469c-15.085937 0-27.355468 12.273438-27.355468 27.355469s12.269531 27.355469 27.355468 27.355469zm0-39.710938c6.8125 0 12.351563 5.542969 12.351563 12.355469s-5.539063 12.355469-12.351563 12.355469-12.355468-5.542969-12.355468-12.355469 5.542968-12.355469 12.355468-12.355469zm0 0"/></svg>